<svg width="186" height="47" viewBox="0 0 186 47" fill="none" xmlns="http://www.w3.org/2000/svg">
<g filter="url(#filter0_d_9_13)">
<path d="M18.72 32.1013H16.24C15.5552 32.1013 15 32.5689 15 33.1458V40.1958C15 40.7726 15.5552 41.2402 16.24 41.2402H18.72C19.4048 41.2402 19.96 40.7726 19.96 40.1958V33.1458C19.96 32.5689 19.4048 32.1013 18.72 32.1013Z" fill="#064E3B"/>
<path d="M26.16 25.5735H23.68C22.9952 25.5735 22.44 26.0412 22.44 26.618V40.1958C22.44 40.7726 22.9952 41.2402 23.68 41.2402H26.16C26.8448 41.2402 27.4 40.7726 27.4 40.1958V26.618C27.4 26.0412 26.8448 25.5735 26.16 25.5735Z" fill="#065F46"/>
<path d="M33.6 17.7402H31.12C30.4352 17.7402 29.88 18.2078 29.88 18.7847V40.1958C29.88 40.7726 30.4352 41.2402 31.12 41.2402H33.6C34.2848 41.2402 34.84 40.7726 34.84 40.1958V18.7847C34.84 18.2078 34.2848 17.7402 33.6 17.7402Z" fill="#10B981"/>
<path d="M15 29.4902C22.75 28.1847 35.15 20.3513 47.55 13.8235" stroke="url(#paint0_linear_9_13)" stroke-width="3" stroke-linecap="round"/>
<path d="M41.35 13.8235H47.55V19.0458" stroke="url(#paint1_linear_9_13)" stroke-width="3" stroke-linecap="round" stroke-linejoin="round"/>
</g>
<path d="M57.7358 23V21.598L62.6825 14.8168H57.7408V12.8182H65.7947V14.2202L60.848 21.0014H65.7898V23H57.7358ZM68.6999 23V12.8182H75.7993V14.8168H71.1608V16.9048H75.4364V18.9084H71.1608V21.0014H75.7993V23H68.6999ZM87.406 12.8182V23H85.3179L81.2661 17.1236H81.2015V23H78.7405V12.8182H80.8584L84.8655 18.6847H84.95V12.8182H87.406ZM92.8143 12.8182V23H90.3534V12.8182H92.8143ZM95.4262 14.8168V12.8182H104.032V14.8168H100.945V23H98.5185V14.8168H95.4262Z" fill="#34D399"/>
<path d="M57.8409 37V31.1818H61.0881V31.5114H58.196V33.9233H60.8182V34.2528H58.196V37H57.8409ZM63.6835 31.1818V37H63.3284V31.1818H63.6835ZM70.6135 31.1818V37H70.2669L66.5567 31.8267H66.5226V37H66.1675V31.1818H66.5169L70.2271 36.3608H70.2612V31.1818H70.6135ZM72.868 37H72.493L74.5925 31.1818H75.0016L77.101 37H76.726L74.8112 31.6392H74.7828L72.868 37ZM73.3993 34.8097H76.1947V35.1392H73.3993V34.8097ZM83.4322 31.1818V37H83.0857L79.3754 31.8267H79.3413V37H78.9862V31.1818H79.3357L83.0459 36.3608H83.08V31.1818H83.4322ZM90.343 33H89.9794C89.9415 32.803 89.8705 32.6127 89.7663 32.429C89.6622 32.2434 89.5277 32.0767 89.3629 31.929C89.2 31.7794 89.0107 31.661 88.7947 31.5739C88.5788 31.4867 88.3402 31.4432 88.0788 31.4432C87.6963 31.4432 87.344 31.5455 87.022 31.75C86.7019 31.9527 86.4453 32.2509 86.2521 32.6449C86.0608 33.0388 85.9652 33.5208 85.9652 34.0909C85.9652 34.6648 86.0608 35.1487 86.2521 35.5426C86.4453 35.9366 86.7019 36.2348 87.022 36.4375C87.344 36.6383 87.6963 36.7386 88.0788 36.7386C88.3402 36.7386 88.5788 36.696 88.7947 36.6108C89.0107 36.5237 89.2 36.4062 89.3629 36.2585C89.5277 36.1089 89.6622 35.9413 89.7663 35.7557C89.8705 35.5701 89.9415 35.3788 89.9794 35.1818H90.343C90.3014 35.4167 90.2209 35.6468 90.1016 35.8722C89.9841 36.0975 89.8288 36.3021 89.6357 36.4858C89.4444 36.6676 89.218 36.8125 88.9567 36.9205C88.6972 37.0265 88.4046 37.0795 88.0788 37.0795C87.594 37.0795 87.1669 36.9564 86.7976 36.7102C86.4283 36.4621 86.1385 36.1136 85.9283 35.6648C85.7199 35.2159 85.6158 34.6913 85.6158 34.0909C85.6158 33.4905 85.7199 32.9659 85.9283 32.517C86.1385 32.0682 86.4283 31.7206 86.7976 31.4744C87.1669 31.2263 87.594 31.1023 88.0788 31.1023C88.4046 31.1023 88.6972 31.1562 88.9567 31.2642C89.218 31.3703 89.4444 31.5142 89.6357 31.696C89.8288 31.8759 89.9841 32.0786 90.1016 32.304C90.2209 32.5294 90.3014 32.7614 90.343 33ZM92.5081 37V31.1818H95.7467V31.5114H92.8632V33.9233H95.5734V34.2528H92.8632V36.6705H95.8149V37H92.5081ZM101.155 32.6364C101.125 32.2746 100.977 31.982 100.712 31.7585C100.449 31.535 100.108 31.4233 99.6895 31.4233C99.4073 31.4233 99.1563 31.4754 98.9366 31.5795C98.7169 31.6837 98.5446 31.8258 98.4196 32.0057C98.2946 32.1856 98.2321 32.392 98.2321 32.625C98.2321 32.7746 98.2605 32.91 98.3173 33.0312C98.376 33.1506 98.4584 33.2576 98.5645 33.3523C98.6705 33.4451 98.7965 33.5265 98.9423 33.5966C99.0882 33.6667 99.2491 33.7282 99.4253 33.7812L100.062 33.9688C100.279 34.035 100.48 34.1117 100.664 34.1989C100.85 34.286 101.011 34.3902 101.147 34.5114C101.285 34.6307 101.392 34.7708 101.468 34.9318C101.546 35.0928 101.584 35.2784 101.584 35.4886C101.584 35.7955 101.505 36.0701 101.346 36.3125C101.189 36.5549 100.964 36.7462 100.672 36.8864C100.383 37.0246 100.041 37.0938 99.6469 37.0938C99.2719 37.0938 98.9452 37.0303 98.6668 36.9034C98.3902 36.7765 98.1715 36.6004 98.0105 36.375C97.8495 36.1477 97.7586 35.8864 97.7378 35.5909H98.1014C98.1204 35.8314 98.1971 36.0398 98.3315 36.2159C98.4679 36.3902 98.6488 36.5246 98.8741 36.6193C99.0995 36.714 99.3571 36.7614 99.6469 36.7614C99.9594 36.7614 100.235 36.7083 100.474 36.6023C100.712 36.4943 100.899 36.3447 101.033 36.1534C101.168 35.9621 101.235 35.7396 101.235 35.4858C101.235 35.2812 101.187 35.1061 101.09 34.9602C100.993 34.8144 100.85 34.6884 100.661 34.5824C100.474 34.4763 100.241 34.3816 99.9622 34.2983L99.2832 34.0938C98.8287 33.9555 98.4812 33.767 98.2406 33.5284C98.002 33.2898 97.8827 32.9924 97.8827 32.6364C97.8827 32.3371 97.9622 32.072 98.1213 31.8409C98.2804 31.608 98.4963 31.4252 98.769 31.2926C99.0437 31.16 99.3533 31.0938 99.698 31.0938C100.045 31.0938 100.35 31.161 100.616 31.2955C100.881 31.428 101.091 31.6108 101.246 31.8438C101.402 32.0748 101.488 32.339 101.505 32.6364H101.155Z" fill="#10B981"/>
<defs>
<filter id="filter0_d_9_13" x="13.0198" y="12.2032" width="36.5105" height="29.877" filterUnits="userSpaceOnUse" color-interpolation-filters="sRGB">
<feFlood flood-opacity="0" result="BackgroundImageFix"/>
<feColorMatrix in="SourceAlpha" type="matrix" values="0 0 0 0 0 0 0 0 0 0 0 0 0 0 0 0 0 0 127 0" result="hardAlpha"/>
<feOffset dy="0.36"/>
<feGaussianBlur stdDeviation="0.24"/>
<feColorMatrix type="matrix" values="0 0 0 0 0 0 0 0 0 0 0 0 0 0 0 0 0 0 0.15 0"/>
<feBlend mode="normal" in2="BackgroundImageFix" result="effect1_dropShadow_9_13"/>
<feBlend mode="normal" in="SourceGraphic" in2="effect1_dropShadow_9_13" result="shape"/>
</filter>
<linearGradient id="paint0_linear_9_13" x1="27.4" y1="36.018" x2="170" y2="36.018" gradientUnits="userSpaceOnUse">
<stop stop-color="#064E3B"/>
<stop offset="0.4" stop-color="#10B981"/>
<stop offset="1" stop-color="#34D399"/>
</linearGradient>
<linearGradient id="paint1_linear_9_13" x1="27.4" y1="36.018" x2="170" y2="36.018" gradientUnits="userSpaceOnUse">
<stop stop-color="#064E3B"/>
<stop offset="0.4" stop-color="#10B981"/>
<stop offset="1" stop-color="#34D399"/>
</linearGradient>
</defs>
</svg>
